<svg xmlns="http://www.w3.org/2000/svg" viewBox="0 0 1366 768"><defs><style>.cls-1{font-size:92.61px;font-family:Ubuntu-Regular, Ubuntu;letter-spacing:-0.04em;}.cls-2{letter-spacing:-0.03em;}.cls-3{fill:none;stroke:#000;stroke-miterlimit:10;stroke-width:3px;}</style></defs><title>Rityta 6</title><g id="_2.1" data-name="2.1"><text class="cls-1" transform="translate(820.12 163.75)">t<tspan class="cls-2" x="33.34" y="0">errain</tspan></text><path class="cls-3" d="M764.52,132.15l-15.36,15.36a2.78,2.78,0,0,1-3.88.06l-13.72-12.95a2.78,2.78,0,0,1-.06-4L745,117.1a2.78,2.78,0,0,1,3.94,0l15.31,15.31,2.2-2.21,21.94-21.94a2.8,2.8,0,0,1,3.94,0l22.42,22.42a2.8,2.8,0,0,1,0,3.94L792.35,157a2.77,2.77,0,0,1-3.94,0l-19.64-19.79"/><path class="cls-3" d="M768.68,128,749,108.26a2.8,2.8,0,0,0-3.94,0L722.6,130.68a2.8,2.8,0,0,0,0,3.94L745,157a2.78,2.78,0,0,0,3.94,0l22.18-22.18,2-2,15.31,15.3a2.78,2.78,0,0,0,3.94,0l13.58-13.58a2.8,2.8,0,0,0,0-3.94l-13.56-13.55a2.77,2.77,0,0,0-4,0L773.1,132.9"/></g></svg>